<?xml version="1.0" encoding="UTF-8" standalone="no"?>
<!-- Created with Inkscape (http://www.inkscape.org/) -->
<svg
   xmlns:dc="http://purl.org/dc/elements/1.1/"
   xmlns:cc="http://creativecommons.org/ns#"
   xmlns:rdf="http://www.w3.org/1999/02/22-rdf-syntax-ns#"
   xmlns:svg="http://www.w3.org/2000/svg"
   xmlns="http://www.w3.org/2000/svg"
   xmlns:xlink="http://www.w3.org/1999/xlink"
   xmlns:sodipodi="http://sodipodi.sourceforge.net/DTD/sodipodi-0.dtd"
   xmlns:inkscape="http://www.inkscape.org/namespaces/inkscape"
   width="48"
   height="48"
   id="svg1307"
   sodipodi:version="0.32"
   inkscape:version="0.46"
   version="1.0"
   sodipodi:docbase="/home/hbons/Desktop/Gaim Refresh/protocols/48"
   sodipodi:docname="yahoo.svg"
   inkscape:export-filename="/home/hbons/Desktop/Gaim Refresh/protocols/48/yahoo.png"
   inkscape:export-xdpi="90"
   inkscape:export-ydpi="90"
   inkscape:output_extension="org.inkscape.output.svg.inkscape">
  <defs
     id="defs1309">
    <linearGradient
       inkscape:collect="always"
       id="linearGradient2211">
      <stop
         style="stop-color:#ffffff;stop-opacity:1;"
         offset="0"
         id="stop2213" />
      <stop
         style="stop-color:#ffffff;stop-opacity:0;"
         offset="1"
         id="stop2215" />
    </linearGradient>
    <linearGradient
       inkscape:collect="always"
       id="linearGradient3150">
      <stop
         style="stop-color:#2e3436;stop-opacity:1;"
         offset="0"
         id="stop3152" />
      <stop
         style="stop-color:#2e3436;stop-opacity:0;"
         offset="1"
         id="stop3154" />
    </linearGradient>
    <radialGradient
       inkscape:collect="always"
       xlink:href="#linearGradient3150"
       id="radialGradient3156"
       cx="10.748654"
       cy="10.457643"
       fx="10.748654"
       fy="10.457643"
       r="6.6449099"
       gradientTransform="matrix(-0.842757,5.698892e-16,-4.565819e-9,-0.35721,19.80716,14.19321)"
       gradientUnits="userSpaceOnUse" />
    <linearGradient
       inkscape:collect="always"
       id="linearGradient4123">
      <stop
         style="stop-color:#ff0000;stop-opacity:1;"
         offset="0"
         id="stop4125" />
      <stop
         style="stop-color:#ff0000;stop-opacity:0;"
         offset="1"
         id="stop4127" />
    </linearGradient>
    <linearGradient
       inkscape:collect="always"
       xlink:href="#linearGradient4123"
       id="linearGradient2206"
       gradientUnits="userSpaceOnUse"
       gradientTransform="matrix(1.871443,0,0,1.871443,1.990827,1.339082)"
       x1="9.7634506"
       y1="11.499014"
       x2="9.7634506"
       y2="0.12942761" />
    <linearGradient
       inkscape:collect="always"
       xlink:href="#linearGradient2211"
       id="linearGradient2217"
       x1="36.249207"
       y1="7.6495404"
       x2="36.249207"
       y2="23.063982"
       gradientUnits="userSpaceOnUse" />
  </defs>
  <sodipodi:namedview
     id="base"
     pagecolor="#ffffff"
     bordercolor="#666666"
     borderopacity="1.0"
     inkscape:pageopacity="0.0"
     inkscape:pageshadow="2"
     inkscape:zoom="11.098901"
     inkscape:cx="49.54817"
     inkscape:cy="29.700698"
     inkscape:current-layer="layer1"
     showgrid="true"
     inkscape:grid-bbox="true"
     inkscape:document-units="px"
     fill="#a40000"
     showguides="true"
     inkscape:guide-bbox="true"
     inkscape:window-width="1268"
     inkscape:window-height="971"
     inkscape:window-x="6"
     inkscape:window-y="21" />
  <metadata
     id="metadata1312">
    <rdf:RDF>
      <cc:Work
         rdf:about="">
        <dc:format>image/svg+xml</dc:format>
        <dc:type
           rdf:resource="http://purl.org/dc/dcmitype/StillImage" />
      </cc:Work>
    </rdf:RDF>
  </metadata>
  <g
     id="layer1"
     inkscape:label="Layer 1"
     inkscape:groupmode="layer">
    <rect
       style="opacity:0;fill:none;fill-opacity:1;stroke:#a40000;stroke-width:1;stroke-miterlimit:4;stroke-dasharray:none;stroke-opacity:1"
       id="rect3203"
       width="0"
       height="2.5118096"
       x="6"
       y="6.4881902" />
    <path
       sodipodi:type="arc"
       style="opacity:0.6;fill:url(#radialGradient3156);fill-opacity:1;stroke:none;stroke-width:1;stroke-miterlimit:4;stroke-dasharray:none;stroke-opacity:1"
       id="path3140"
       sodipodi:cx="10.748654"
       sodipodi:cy="10.457643"
       sodipodi:rx="6.6449099"
       sodipodi:ry="2.3675451"
       d="M 17.393564 10.457643 A 6.6449099 2.3675451 0 1 1  4.1037445,10.457643 A 6.6449099 2.3675451 0 1 1  17.393564 10.457643 z"
       transform="matrix(3.163562,0,0,2.111892,-10.02562,12.91459)" />
    <path
       style="opacity:1;fill:#ff0000;fill-opacity:1;stroke:#a40000;stroke-width:1;stroke-miterlimit:4;stroke-dasharray:none;stroke-opacity:1"
       d="M 36.593752,13.5 L 36.750002,24.71875 L 44.125002,13.5 L 36.593752,13.5 z M 33.406252,30.34375 C 32.052922,30.519922 31.000003,31.724054 31.000002,33.15625 C 31.000002,34.70982 32.231505,35.96875 33.750002,35.96875 C 35.268499,35.96875 36.500002,34.70982 36.500002,33.15625 C 36.500002,31.60268 35.268499,30.343751 33.750002,30.34375 C 33.631369,30.34375 33.520941,30.32882 33.406252,30.34375 z "
       id="path4110" />
    <path
       sodipodi:type="inkscape:offset"
       inkscape:radius="-1.0402364"
       inkscape:original="M 36.59375 13.5 L 36.75 24.71875 L 44.125 13.5 L 36.59375 13.5 z M 33.40625 30.34375 C 32.052918 30.519922 31.000001 31.724054 31 33.15625 C 31 34.70982 32.231503 35.96875 33.75 35.96875 C 35.268495 35.96875 36.5 34.70982 36.5 33.15625 C 36.499998 31.60268 35.268497 30.343751 33.75 30.34375 C 33.631365 30.34375 33.520939 30.32882 33.40625 30.34375 z "
       xlink:href="#path4110"
       style="opacity:0.35;fill:url(#linearGradient2217);fill-opacity:1;stroke:#ffffff;stroke-width:1;stroke-miterlimit:4;stroke-dasharray:none;stroke-opacity:1"
       id="path2209"
       inkscape:href="#path4110"
       d="M 37.625,15.0625 L 37.71875,21.875 L 42.1875,15.0625 L 37.625,15.0625 z M 33.53125,31.90625 C 32.711111,32.013013 32.031251,32.765143 32.03125,33.6875 C 32.031249,34.691344 32.806451,35.46875 33.75,35.46875 C 34.693551,35.46875 35.46875,34.691346 35.46875,33.6875 C 35.468751,32.683656 34.69355,31.906251 33.75,31.90625 C 33.544091,31.90625 33.473148,31.913814 33.53125,31.90625 z " />
    <path
       style="opacity:1;fill:url(#linearGradient2206);fill-opacity:1;stroke:#a40000;stroke-width:0.99999976;stroke-miterlimit:4;stroke-dasharray:none;stroke-opacity:1"
       d="M 2.6545432,11.532816 L 4.353345,15.445312 L 7.741467,15.555398 L 17.47685,25.310159 L 17.4318,31.506326 L 12.428056,31.384739 L 11.665952,34.499424 L 27.339128,34.54589 L 26.551973,31.519888 L 21.572919,31.603085 L 21.572919,25.191498 L 28.209096,17.523843 L 31.468823,17.433744 L 32.573193,13.532585 L 23.168883,13.473142 L 21.694773,17.410562 L 23.776066,17.4644 L 19.977012,20.889333 L 13.198929,15.445312 L 17.758833,15.445312 L 20.124034,11.577865 L 2.6545432,11.532816 z "
       id="rect3219"
       sodipodi:nodetypes="cccccccccccccccccccccc" />
    <path
       sodipodi:type="inkscape:offset"
       inkscape:radius="-0.98856229"
       inkscape:original="M 2.65625 11.53125 L 4.34375 15.4375 L 7.75 15.5625 L 17.46875 25.3125 L 17.4375 31.5 L 12.4375 31.375 L 11.65625 34.5 L 27.34375 34.53125 L 26.5625 31.53125 L 21.5625 31.59375 L 21.5625 25.1875 L 28.21875 17.53125 L 31.46875 17.4375 L 32.5625 13.53125 L 23.15625 13.46875 L 21.6875 17.40625 L 23.78125 17.46875 L 19.96875 20.875 L 13.1875 15.4375 L 17.75 15.4375 L 20.125 11.5625 L 2.65625 11.53125 z "
       xlink:href="#rect3219"
       style="opacity:0.35;fill:none;fill-opacity:1;stroke:#ffffff;stroke-width:0.99999976;stroke-miterlimit:4;stroke-dasharray:none;stroke-opacity:1"
       id="path2204"
       inkscape:href="#rect3219"
       d="M 4.15625,13.0625 L 5,15 L 7.78125,15.09375 C 8.0317447,15.110809 8.266366,15.222533 8.4375,15.40625 L 18.15625,25.15625 C 18.347286,25.335037 18.45966,25.58226 18.46875,25.84375 L 18.4375,32.03125 C 18.44087,32.30297 18.33225,32.564099 18.137167,32.75327 C 17.942084,32.942442 17.677738,33.042977 17.40625,33.03125 L 13.21875,32.9375 L 12.9375,34.03125 L 26.0625,34.0625 L 25.78125,33.0625 L 21.5625,33.125 C 21.296354,33.12807 21.040212,33.0237 20.852006,32.835494 C 20.6638,32.647288 20.55943,32.391146 20.5625,32.125 L 20.5625,25.71875 C 20.562717,25.476777 20.651667,25.243286 20.8125,25.0625 L 27.46875,17.40625 C 27.649517,17.19593 27.910308,17.071204 28.1875,17.0625 L 30.71875,17 L 31.28125,15.0625 L 23.84375,15 L 23.125,16.96875 L 23.8125,17 C 24.228223,17.002399 24.598033,17.264612 24.737859,17.656122 C 24.877684,18.047632 24.757648,18.48479 24.4375,18.75 L 20.625,22.15625 C 20.263408,22.479557 19.720674,22.492795 19.34375,22.1875 L 12.5625,16.75 C 12.215365,16.491727 12.076498,16.037735 12.219751,15.629463 C 12.363005,15.221191 12.755094,14.953499 13.1875,14.96875 L 17.1875,14.96875 L 18.34375,13.09375 L 4.15625,13.0625 z " />
  </g>
</svg>
